<svg width="867px" height="497px" viewBox="0 0 867 497" version="1.1" xmlns="http://www.w3.org/2000/svg" xmlns:xlink="http://www.w3.org/1999/xlink" xmlns:sketch="http://www.bohemiancoding.com/sketch/ns">
    <!-- Generator: Sketch 3.2.2 (9983) - http://www.bohemiancoding.com/sketch -->
    <title>macbook</title>
    <desc>Created with Sketch.</desc>
    <defs>
        <filter x="-50%" y="-50%" width="200%" height="200%" filterUnits="objectBoundingBox" id="filter-1">
            <feOffset dx="8" dy="0" in="SourceAlpha" result="shadowOffsetInner1"></feOffset>
            <feGaussianBlur stdDeviation="0" in="shadowOffsetInner1" result="shadowBlurInner1"></feGaussianBlur>
            <feComposite in="shadowBlurInner1" in2="SourceAlpha" operator="arithmetic" k2="-1" k3="1" result="shadowInnerInner1"></feComposite>
            <feColorMatrix values="0 0 0 0 0.72240001   0 0 0 0 0.745333314   0 0 0 0 0.860000014  0 0 0 0.7 0" in="shadowInnerInner1" type="matrix" result="shadowMatrixInner1"></feColorMatrix>
            <feOffset dx="-8" dy="0" in="SourceAlpha" result="shadowOffsetInner2"></feOffset>
            <feGaussianBlur stdDeviation="0" in="shadowOffsetInner2" result="shadowBlurInner2"></feGaussianBlur>
            <feComposite in="shadowBlurInner2" in2="SourceAlpha" operator="arithmetic" k2="-1" k3="1" result="shadowInnerInner2"></feComposite>
            <feColorMatrix values="0 0 0 0 0.72240001   0 0 0 0 0.745333314   0 0 0 0 0.860000014  0 0 0 0.7 0" in="shadowInnerInner2" type="matrix" result="shadowMatrixInner2"></feColorMatrix>
            <feOffset dx="0" dy="4" in="SourceAlpha" result="shadowOffsetInner3"></feOffset>
            <feGaussianBlur stdDeviation="0" in="shadowOffsetInner3" result="shadowBlurInner3"></feGaussianBlur>
            <feComposite in="shadowBlurInner3" in2="SourceAlpha" operator="arithmetic" k2="-1" k3="1" result="shadowInnerInner3"></feComposite>
            <feColorMatrix values="0 0 0 0 0.950600028   0 0 0 0 0.958440006   0 0 0 0 0.980000019  0 0 0 0.7 0" in="shadowInnerInner3" type="matrix" result="shadowMatrixInner3"></feColorMatrix>
            <feMerge>
                <feMergeNode in="SourceGraphic"></feMergeNode>
                <feMergeNode in="shadowMatrixInner1"></feMergeNode>
                <feMergeNode in="shadowMatrixInner2"></feMergeNode>
                <feMergeNode in="shadowMatrixInner3"></feMergeNode>
            </feMerge>
        </filter>
        <rect id="path-2" x="111" y="27" width="644" height="407" rx="2"></rect>
        <path id="path-4" d="M251.5,507 C390.399615,507 503,394.399615 503,255.5 C503,124.138307 300,3.02350422e-10 288,0 C276,-3.02350422e-10 264,-2 252.5,4 C202.556109,4 162.131475,12.8959414 123,37.9999997 C112.950316,41.9707556 103.57699,46.9697225 94.9515864,52.734746 C93.9060535,54.8681025 92.6012501,57.0234309 91.0930961,59.1973143 C76,70.9999997 59.3628261,90.2668558 48,106 C46.6785161,107.082372 45.8962449,106.642783 44.6363555,107.6319 C41.1369656,114.071753 38.2455905,120.573905 36,127 C11.9984628,165.535251 0,206.758844 0,255.5 C0,394.399615 112.600385,507 251.5,507 Z"></path>
        <filter x="-50%" y="-50%" width="200%" height="200%" filterUnits="objectBoundingBox" id="filter-6">
            <feOffset dx="4" dy="4" in="SourceAlpha" result="shadowOffsetInner1"></feOffset>
            <feGaussianBlur stdDeviation="0" in="shadowOffsetInner1" result="shadowBlurInner1"></feGaussianBlur>
            <feComposite in="shadowBlurInner1" in2="SourceAlpha" operator="arithmetic" k2="-1" k3="1" result="shadowInnerInner1"></feComposite>
            <feColorMatrix values="0 0 0 0 0.72240001   0 0 0 0 0.745333314   0 0 0 0 0.860000014  0 0 0 0.7 0" in="shadowInnerInner1" type="matrix" result="shadowMatrixInner1"></feColorMatrix>
            <feMerge>
                <feMergeNode in="SourceGraphic"></feMergeNode>
                <feMergeNode in="shadowMatrixInner1"></feMergeNode>
            </feMerge>
        </filter>
        <filter x="-50%" y="-50%" width="200%" height="200%" filterUnits="objectBoundingBox" id="filter-7">
            <feOffset dx="4" dy="4" in="SourceAlpha" result="shadowOffsetInner1"></feOffset>
            <feGaussianBlur stdDeviation="0" in="shadowOffsetInner1" result="shadowBlurInner1"></feGaussianBlur>
            <feComposite in="shadowBlurInner1" in2="SourceAlpha" operator="arithmetic" k2="-1" k3="1" result="shadowInnerInner1"></feComposite>
            <feColorMatrix values="0 0 0 0 0.72240001   0 0 0 0 0.745333314   0 0 0 0 0.860000014  0 0 0 0.7 0" in="shadowInnerInner1" type="matrix" result="shadowMatrixInner1"></feColorMatrix>
            <feMerge>
                <feMergeNode in="SourceGraphic"></feMergeNode>
                <feMergeNode in="shadowMatrixInner1"></feMergeNode>
            </feMerge>
        </filter>
        <filter x="-50%" y="-50%" width="200%" height="200%" filterUnits="objectBoundingBox" id="filter-8">
            <feOffset dx="4" dy="4" in="SourceAlpha" result="shadowOffsetInner1"></feOffset>
            <feGaussianBlur stdDeviation="0" in="shadowOffsetInner1" result="shadowBlurInner1"></feGaussianBlur>
            <feComposite in="shadowBlurInner1" in2="SourceAlpha" operator="arithmetic" k2="-1" k3="1" result="shadowInnerInner1"></feComposite>
            <feColorMatrix values="0 0 0 0 0.72240001   0 0 0 0 0.745333314   0 0 0 0 0.860000014  0 0 0 0.7 0" in="shadowInnerInner1" type="matrix" result="shadowMatrixInner1"></feColorMatrix>
            <feMerge>
                <feMergeNode in="SourceGraphic"></feMergeNode>
                <feMergeNode in="shadowMatrixInner1"></feMergeNode>
            </feMerge>
        </filter>
        <filter x="-50%" y="-50%" width="200%" height="200%" filterUnits="objectBoundingBox" id="filter-9">
            <feOffset dx="4" dy="4" in="SourceAlpha" result="shadowOffsetInner1"></feOffset>
            <feGaussianBlur stdDeviation="0" in="shadowOffsetInner1" result="shadowBlurInner1"></feGaussianBlur>
            <feComposite in="shadowBlurInner1" in2="SourceAlpha" operator="arithmetic" k2="-1" k3="1" result="shadowInnerInner1"></feComposite>
            <feColorMatrix values="0 0 0 0 0.611971021   0 0 0 0 0.632922351   0 0 0 0 0.76910609  0 0 0 0.7 0" in="shadowInnerInner1" type="matrix" result="shadowMatrixInner1"></feColorMatrix>
            <feMerge>
                <feMergeNode in="SourceGraphic"></feMergeNode>
                <feMergeNode in="shadowMatrixInner1"></feMergeNode>
            </feMerge>
        </filter>
        <filter x="-50%" y="-50%" width="200%" height="200%" filterUnits="objectBoundingBox" id="filter-10">
            <feOffset dx="4" dy="4" in="SourceAlpha" result="shadowOffsetInner1"></feOffset>
            <feGaussianBlur stdDeviation="0" in="shadowOffsetInner1" result="shadowBlurInner1"></feGaussianBlur>
            <feComposite in="shadowBlurInner1" in2="SourceAlpha" operator="arithmetic" k2="-1" k3="1" result="shadowInnerInner1"></feComposite>
            <feColorMatrix values="0 0 0 0 0.611971021   0 0 0 0 0.632922351   0 0 0 0 0.76910609  0 0 0 0.7 0" in="shadowInnerInner1" type="matrix" result="shadowMatrixInner1"></feColorMatrix>
            <feMerge>
                <feMergeNode in="SourceGraphic"></feMergeNode>
                <feMergeNode in="shadowMatrixInner1"></feMergeNode>
            </feMerge>
        </filter>
        <filter x="-50%" y="-50%" width="200%" height="200%" filterUnits="objectBoundingBox" id="filter-11">
            <feOffset dx="4" dy="4" in="SourceAlpha" result="shadowOffsetInner1"></feOffset>
            <feGaussianBlur stdDeviation="0" in="shadowOffsetInner1" result="shadowBlurInner1"></feGaussianBlur>
            <feComposite in="shadowBlurInner1" in2="SourceAlpha" operator="arithmetic" k2="-1" k3="1" result="shadowInnerInner1"></feComposite>
            <feColorMatrix values="0 0 0 0 0.611971021   0 0 0 0 0.632922351   0 0 0 0 0.76910609  0 0 0 0.7 0" in="shadowInnerInner1" type="matrix" result="shadowMatrixInner1"></feColorMatrix>
            <feMerge>
                <feMergeNode in="SourceGraphic"></feMergeNode>
                <feMergeNode in="shadowMatrixInner1"></feMergeNode>
            </feMerge>
        </filter>
        <filter x="-50%" y="-50%" width="200%" height="200%" filterUnits="objectBoundingBox" id="filter-12">
            <feOffset dx="4" dy="4" in="SourceAlpha" result="shadowOffsetInner1"></feOffset>
            <feGaussianBlur stdDeviation="0" in="shadowOffsetInner1" result="shadowBlurInner1"></feGaussianBlur>
            <feComposite in="shadowBlurInner1" in2="SourceAlpha" operator="arithmetic" k2="-1" k3="1" result="shadowInnerInner1"></feComposite>
            <feColorMatrix values="0 0 0 0 0.611971021   0 0 0 0 0.632922351   0 0 0 0 0.76910609  0 0 0 0.7 0" in="shadowInnerInner1" type="matrix" result="shadowMatrixInner1"></feColorMatrix>
            <feMerge>
                <feMergeNode in="SourceGraphic"></feMergeNode>
                <feMergeNode in="shadowMatrixInner1"></feMergeNode>
            </feMerge>
        </filter>
        <filter x="-50%" y="-50%" width="200%" height="200%" filterUnits="objectBoundingBox" id="filter-13">
            <feOffset dx="4" dy="4" in="SourceAlpha" result="shadowOffsetInner1"></feOffset>
            <feGaussianBlur stdDeviation="0" in="shadowOffsetInner1" result="shadowBlurInner1"></feGaussianBlur>
            <feComposite in="shadowBlurInner1" in2="SourceAlpha" operator="arithmetic" k2="-1" k3="1" result="shadowInnerInner1"></feComposite>
            <feColorMatrix values="0 0 0 0 0.72240001   0 0 0 0 0.745333314   0 0 0 0 0.860000014  0 0 0 0.7 0" in="shadowInnerInner1" type="matrix" result="shadowMatrixInner1"></feColorMatrix>
            <feMerge>
                <feMergeNode in="SourceGraphic"></feMergeNode>
                <feMergeNode in="shadowMatrixInner1"></feMergeNode>
            </feMerge>
        </filter>
        <filter x="-50%" y="-50%" width="200%" height="200%" filterUnits="objectBoundingBox" id="filter-14">
            <feOffset dx="2" dy="2" in="SourceAlpha" result="shadowOffsetInner1"></feOffset>
            <feGaussianBlur stdDeviation="0" in="shadowOffsetInner1" result="shadowBlurInner1"></feGaussianBlur>
            <feComposite in="shadowBlurInner1" in2="SourceAlpha" operator="arithmetic" k2="-1" k3="1" result="shadowInnerInner1"></feComposite>
            <feColorMatrix values="0 0 0 0 0.72240001   0 0 0 0 0.745333314   0 0 0 0 0.860000014  0 0 0 0.7 0" in="shadowInnerInner1" type="matrix" result="shadowMatrixInner1"></feColorMatrix>
            <feMerge>
                <feMergeNode in="SourceGraphic"></feMergeNode>
                <feMergeNode in="shadowMatrixInner1"></feMergeNode>
            </feMerge>
        </filter>
        <filter x="-50%" y="-50%" width="200%" height="200%" filterUnits="objectBoundingBox" id="filter-15">
            <feOffset dx="4" dy="4" in="SourceAlpha" result="shadowOffsetInner1"></feOffset>
            <feGaussianBlur stdDeviation="0" in="shadowOffsetInner1" result="shadowBlurInner1"></feGaussianBlur>
            <feComposite in="shadowBlurInner1" in2="SourceAlpha" operator="arithmetic" k2="-1" k3="1" result="shadowInnerInner1"></feComposite>
            <feColorMatrix values="0 0 0 0 0.611971021   0 0 0 0 0.632922351   0 0 0 0 0.76910609  0 0 0 0.7 0" in="shadowInnerInner1" type="matrix" result="shadowMatrixInner1"></feColorMatrix>
            <feMerge>
                <feMergeNode in="SourceGraphic"></feMergeNode>
                <feMergeNode in="shadowMatrixInner1"></feMergeNode>
            </feMerge>
        </filter>
        <filter x="-50%" y="-50%" width="200%" height="200%" filterUnits="objectBoundingBox" id="filter-16">
            <feOffset dx="-2" dy="0" in="SourceAlpha" result="shadowOffsetInner1"></feOffset>
            <feGaussianBlur stdDeviation="0" in="shadowOffsetInner1" result="shadowBlurInner1"></feGaussianBlur>
            <feComposite in="shadowBlurInner1" in2="SourceAlpha" operator="arithmetic" k2="-1" k3="1" result="shadowInnerInner1"></feComposite>
            <feColorMatrix values="0 0 0 0 1   0 0 0 0 1   0 0 0 0 1  0 0 0 0.525 0" in="shadowInnerInner1" type="matrix" result="shadowMatrixInner1"></feColorMatrix>
            <feMerge>
                <feMergeNode in="SourceGraphic"></feMergeNode>
                <feMergeNode in="shadowMatrixInner1"></feMergeNode>
            </feMerge>
        </filter>
        <path id="path-17" d="M127.511848,255.488846 C127.511848,255.488846 99.2289708,235.413384 102.135984,223.358498 C105.512722,209.355747 98.8589104,191.902146 78.6392542,184.954763 C58.4195979,178.007381 58.6038738,196.891911 66.4565623,199.473529 C74.3092508,202.055148 88.7050016,206.051316 84.5069217,224.834306 C80.3088417,243.617295 115.266145,265.185661 123.630225,269.930304 C131.994304,274.674946 127.511848,255.488846 127.511848,255.488846 Z"></path>
        <path id="path-19" d="M1.59556007,233.336431 C5.46813369,237.968923 21.1611998,222.24703 21.1611998,222.24703 C21.1611998,222.24703 33.0711226,235.460241 44.8078158,240.837805 C56.544509,246.215368 73.3514761,248.853628 73.3514761,248.853628 C73.3514761,248.853628 78.7549703,273.093542 84.6022467,273.093542 C90.4495231,273.093542 93.742299,242.886831 108.738324,214.601171 C126.108959,181.836497 130.880682,175.541163 156.592792,149.840231 C182.304902,124.139298 215.492177,97.1540841 212.165617,93.2168542 C205.404642,85.2147407 175.023356,79.8576999 165.853436,70.0688295 C156.683515,60.2799591 152.095344,32.2310523 145.334369,24.2289376 C140.397078,18.3852876 117.754513,49.3297428 90.1746586,74.4305451 C62.5948042,99.5313475 41.0914921,124.193932 21.1611998,166.087393 C3.56950888,203.065115 -2.27701354,228.703939 1.59556007,233.336431 Z"></path>
        <path id="path-21" d="M152.167241,158.419096 C181.700618,167.41329 224.583924,142.311928 233.676499,91.6227023 C242.769074,40.9334771 204.133492,-2.91524445 152.167243,1.1469043 C100.200995,5.20905305 74.5827759,59.8285765 83.7928881,84.4416711 C93.0030003,109.054766 122.633864,149.424901 152.167241,158.419096 Z"></path>
        <path id="path-23" d="M113.73243,175.825211 C113.73243,175.825211 150.800221,168.748993 153.710557,177.17217 C156.620892,185.595347 128.131492,194.617488 128.131492,194.617488 C127.611073,194.788907 126.932388,194.563326 126.610969,194.107052 L113.73243,175.825211 Z"></path>
    </defs>
    <g id="Home" stroke="none" stroke-width="1" fill="none" fill-rule="evenodd" sketch:type="MSPage">
        <g sketch:type="MSArtboardGroup" transform="translate(-207.000000, -263.000000)" id="Hero">
            <g sketch:type="MSLayerGroup" transform="translate(0.000000, -1.000000)">
                <g id="MacBook" transform="translate(207.000000, 267.000000)">
                    <g id="Computer" sketch:type="MSShapeGroup">
                        <rect id="Rectangle-121" stroke="#B8BEDC" stroke-width="4" fill="#2D2C45" x="84" y="0" width="698" height="463" rx="25"></rect>
                        <path d="M0,483 C0,483 24.0833333,493 72.25,493 L794.75,493 C842.916667,493 867,483 867,483 L0,483 Z" id="Rectangle-119" fill="#9CA2C4"></path>
                        <rect id="Rectangle-118" fill="#D8DDF0" filter="url(#filter-1)" x="0" y="461" width="867" height="22"></rect>
                        <rect id="Rectangle-120" fill="#9CA2C4" x="363" y="461" width="146" height="10"></rect>
                    </g>
                    <mask id="mask-3" sketch:name="Rectangle 92" fill="white">
                        <use xlink:href="#path-2"></use>
                    </mask>
                    <use id="Rectangle-92" fill="#222137" sketch:type="MSShapeGroup" xlink:href="#path-2"></use>
                    <g id="Moon-2" mask="url(#mask-3)">
                        <g transform="translate(474.000000, 149.000000)">
                            <mask id="mask-5" sketch:name="Moon" fill="white">
                                <use xlink:href="#path-4"></use>
                            </mask>
                            <use id="Moon" stroke="none" fill="#D8DDF0" fill-rule="evenodd" sketch:type="MSShapeGroup" xlink:href="#path-4"></use>
                            <path d="M110.999999,112.000001 C170.999999,55.0000006 124.999998,46 93.9999989,53 C63,60 43.9999998,100.000001 43.9999998,100.000001 C43.9999998,100.000001 46.8945371,172.900189 110.999999,112.000001 Z" id="Oval-75" stroke="#E7EAF5" stroke-width="14" fill="#D8DDF0" fill-rule="evenodd" filter="url(#filter-6)" sketch:type="MSShapeGroup" mask="url(#mask-5)"></path>
                            <path d="M286.208944,140.56722 C308.837542,136.850365 326.643652,115.292604 323.675967,96.7083272 C320.708282,78.1240504 307.311162,64 286.208944,64 C265.106727,64 248,81.1401561 248,102.28361 C248,123.427064 263.580346,144.284076 286.208944,140.56722 Z" id="Oval-75" stroke="#E7EAF5" stroke-width="11" fill="#D8DDF0" fill-rule="evenodd" filter="url(#filter-7)" sketch:type="MSShapeGroup" mask="url(#mask-5)"></path>
                            <path d="M183.208944,291.56722 C205.837542,287.850365 223.643652,266.292604 220.675967,247.708327 C217.708282,229.12405 204.311162,215 183.208944,215 C162.106727,215 145,232.140156 145,253.28361 C145,274.427064 160.580346,295.284076 183.208944,291.56722 Z" id="Oval-75" stroke="#E7EAF5" stroke-width="11" fill="#D8DDF0" fill-rule="evenodd" filter="url(#filter-8)" sketch:type="MSShapeGroup" mask="url(#mask-5)"></path>
                            <path d="M186,58 C197,68 229.79623,64.3436495 228,53 C226.20377,41.6563505 219.126466,36 205,36 C190.873534,36 175,48 186,58 Z" id="Oval-75" stroke="#E7EAF5" stroke-width="8" fill="#B8BEDC" fill-rule="evenodd" filter="url(#filter-9)" sketch:type="MSShapeGroup" mask="url(#mask-5)"></path>
                            <path d="M111,158 C113.738533,143.988584 94,140 81,146 C68,152 60,159.999997 64,171.999999 C68,184.000001 108.261467,172.011416 111,158 Z" id="Oval-75" stroke="#E7EAF5" stroke-width="8" fill="#B8BEDC" fill-rule="evenodd" filter="url(#filter-10)" sketch:type="MSShapeGroup" mask="url(#mask-5)"></path>
                            <path d="M246.12964,208.525467 C243.65206,199.037352 237.485598,191.072326 229.421287,193.050632 C221.356976,195.028939 215.231428,200.215178 216.100512,210.148857 C216.969596,220.082535 222.232414,224.02953 232.056394,223.170043 C241.880374,222.310557 248.607221,218.013583 246.12964,208.525467 Z" id="Oval-75" stroke="#E7EAF5" stroke-width="8" fill="#B8BEDC" fill-rule="evenodd" filter="url(#filter-11)" sketch:type="MSShapeGroup" mask="url(#mask-5)"></path>
                            <path d="M46.2390618,259.662804 C44.4300245,252.827729 34.4757417,249.627322 28.5461405,251.063255 C22.6165394,252.499188 20.8547597,254.670632 21.4810228,261.828852 C22.107286,268.987072 27.6637822,273.096365 34.8852989,272.464565 C42.1068156,271.832764 48.0480992,266.497879 46.2390618,259.662804 Z" id="Oval-75" stroke="#E7EAF5" stroke-width="6" fill="#B8BEDC" fill-rule="evenodd" filter="url(#filter-12)" sketch:type="MSShapeGroup" mask="url(#mask-5)"></path>
                            <path d="M97.2822638,205.97335 C95.7759202,200.38331 87.4220351,197.783122 82.4394327,198.969447 C77.4568303,200.155772 75.9731139,201.936105 76.485511,207.79283 C76.9979081,213.649556 81.6566597,217.00186 87.7227337,216.471148 C93.7888078,215.940435 98.7886074,211.56339 97.2822638,205.97335 Z" id="Oval-75" stroke="none" fill="#E7EAF5" fill-rule="evenodd" sketch:type="MSShapeGroup" mask="url(#mask-5)"></path>
                            <path d="M205.780741,255.950699 C203.709907,248.209651 192.261597,244.599192 185.436834,246.235261 C178.61207,247.871331 176.581612,250.334226 177.291057,258.443224 C178.000503,266.552222 184.387357,271.199247 192.697334,270.472218 C201.00731,269.745189 207.851575,263.691748 205.780741,255.950699 Z" id="Oval-75" stroke="none" fill="#E7EAF5" fill-rule="evenodd" sketch:type="MSShapeGroup" mask="url(#mask-5)">
                                <g transform="translate(193.080322, 258.051190) rotate(-78.000000) translate(-193.080322, -258.051190) "></g>
                            </path>
                            <path d="M21.8008401,183.094051 C20.4182438,177.811064 12.84849,175.327332 8.34300659,176.430225 C3.83752318,177.533118 2.50079984,179.208895 2.98473044,184.740247 C3.46866103,190.271599 7.6966763,193.452705 13.185029,192.972536 C18.6733817,192.492368 23.1834363,188.377038 21.8008401,183.094051 Z" id="Oval-75" stroke="none" fill="#E7EAF5" fill-rule="evenodd" sketch:type="MSShapeGroup" mask="url(#mask-5)">
                                <g transform="translate(13.000000, 184.500000) rotate(288.000000) translate(-13.000000, -184.500000) "></g>
                            </path>
                            <path d="M203.80084,165.094051 C202.418244,159.811064 194.84849,157.327332 190.343007,158.430225 C185.837523,159.533118 184.5008,161.208895 184.98473,166.740247 C185.468661,172.271599 189.696676,175.452705 195.185029,174.972536 C200.673382,174.492368 205.183436,170.377038 203.80084,165.094051 Z" id="Oval-75" stroke="none" fill="#E7EAF5" fill-rule="evenodd" sketch:type="MSShapeGroup" mask="url(#mask-5)">
                                <g transform="translate(195.000000, 166.500000) rotate(288.000000) translate(-195.000000, -166.500000) "></g>
                            </path>
                            <path d="M282.271463,239.395714 C280.689446,233.494415 271.935462,230.744172 266.71611,231.992899 C261.496758,233.241626 259.943525,235.119736 260.484389,241.301836 C261.025253,247.483935 265.90844,251.025487 272.263375,250.469502 C278.61831,249.913517 283.85348,245.297012 282.271463,239.395714 Z" id="Oval-75" stroke="none" fill="#E7EAF5" fill-rule="evenodd" sketch:type="MSShapeGroup" mask="url(#mask-5)">
                                <g transform="translate(272.500000, 241.000000) rotate(-59.000000) translate(-272.500000, -241.000000) "></g>
                            </path>
                            <path d="M218.239062,145.662804 C216.430024,138.827729 208.707483,135.48828 202.777881,136.924212 C196.84828,138.360145 192.85476,140.670632 193.481023,147.828852 C194.107286,154.987072 199.663782,159.096365 206.885299,158.464565 C214.106816,157.832764 220.048099,152.497879 218.239062,145.662804 Z" id="Oval-75" stroke="#E7EAF5" stroke-width="6" fill="#D8DDF0" fill-rule="evenodd" filter="url(#filter-13)" sketch:type="MSShapeGroup" mask="url(#mask-5)"></path>
                            <path d="M89.7213135,71.7133788 C89.1685791,70.6252441 87.3760882,70.6121441 85.7971191,71.7351075 C84.21815,72.858071 84.2201298,74.5710283 84.6738651,75.2909991 C85.1276005,76.0109699 86.9193263,76.0070581 87.9999998,75 C89.0806733,73.992942 90.2740478,72.8015136 89.7213135,71.7133788 Z" id="Oval-76" stroke="#E7EAF5" stroke-width="2" fill="#B8BEDC" fill-rule="evenodd" filter="url(#filter-14)" sketch:type="MSShapeGroup" mask="url(#mask-5)"></path>
                            <path d="M221.464977,81.96077 C220.794482,79.427442 217.932227,78.1897202 215.7345,78.7219292 C213.536774,79.2541383 212.056629,80.1104888 212.288745,82.7635863 C212.520861,85.4166837 214.580301,86.9397377 217.256859,86.7055693 C219.933416,86.4714009 222.135473,84.4940979 221.464977,81.96077 Z" id="Oval-75" stroke="none" fill="#E7EAF5" fill-rule="evenodd" sketch:type="MSShapeGroup" mask="url(#mask-5)">
                                <g transform="translate(216.928735, 82.641702) rotate(-22.000000) translate(-216.928735, -82.641702) "></g>
                            </path>
                            <path d="M171.869966,36.5464585 C170.813497,32.5548071 166.303569,30.6045843 162.84071,31.4431623 C159.377851,32.2817403 157.045653,33.6310533 157.411388,37.8114202 C157.777123,41.991787 161.02209,44.3915949 165.239422,44.0226262 C169.456754,43.6536575 172.926435,40.5381099 171.869966,36.5464585 Z" id="Oval-75" stroke="none" fill="#E7EAF5" fill-rule="evenodd" sketch:type="MSShapeGroup" mask="url(#mask-5)">
                                <g transform="translate(164.722412, 37.619372) rotate(201.000000) translate(-164.722412, -37.619372) "></g>
                            </path>
                            <path d="M108.624977,203.954603 C107.954482,201.421275 105.092227,200.183553 102.8945,200.715762 C100.696774,201.247971 99.2166293,202.104322 99.4487453,204.757419 C99.6808612,207.410517 101.740301,208.933571 104.416859,208.699402 C107.093416,208.465234 109.295473,206.487931 108.624977,203.954603 Z" id="Oval-75" stroke="none" fill="#E7EAF5" fill-rule="evenodd" sketch:type="MSShapeGroup" mask="url(#mask-5)">
                                <g transform="translate(104.088735, 204.635535) rotate(201.000000) translate(-104.088735, -204.635535) "></g>
                            </path>
                            <path d="M103.624977,92.9546029 C102.954482,90.4212749 100.092227,89.1835531 97.8945001,89.7157622 C95.6967736,90.2479712 94.2166293,91.1043217 94.4487453,93.7574192 C94.6808612,96.4105166 96.7403014,97.9335706 99.4168588,97.6994022 C102.093416,97.4652338 104.295473,95.4879308 103.624977,92.9546029 Z" id="Oval-75" stroke="none" fill="#E7EAF5" fill-rule="evenodd" sketch:type="MSShapeGroup" mask="url(#mask-5)">
                                <g transform="translate(99.088735, 93.635535) rotate(201.000000) translate(-99.088735, -93.635535) "></g>
                            </path>
                            <path d="M45.1051872,222.691634 C44.3092108,219.684201 40.9112923,218.214843 38.3022678,218.846653 C35.6932433,219.478464 33.9360943,220.495078 34.21165,223.644695 C34.4872058,226.794312 36.9320642,228.602401 40.1095315,228.324408 C43.2869989,228.046416 45.9011636,225.699067 45.1051872,222.691634 Z" id="Oval-75" stroke="none" fill="#E7EAF5" fill-rule="evenodd" sketch:type="MSShapeGroup" mask="url(#mask-5)"></path>
                            <path d="M115.737021,240.233789 C114.383274,235.118932 108.604303,232.619939 104.167034,233.694483 C99.7297659,234.769027 96.7413149,236.498022 97.2099632,241.854697 C97.6786115,247.211371 101.836676,250.286458 107.240717,249.813666 C112.644759,249.340873 117.090769,245.348646 115.737021,240.233789 Z" id="Oval-75" stroke="none" fill="#E7EAF5" fill-rule="evenodd" sketch:type="MSShapeGroup" mask="url(#mask-5)">
                                <g transform="translate(106.578226, 241.608609) rotate(-56.000000) translate(-106.578226, -241.608609) "></g>
                            </path>
                            <path d="M92.3574839,92.297008 C91.0037361,87.182151 85.2247654,84.6831575 80.7874969,85.7577019 C76.3502284,86.8322463 73.3617774,88.5612407 73.8304257,93.9179155 C74.299074,99.2745903 78.4571388,102.349677 83.8611799,101.876885 C89.265221,101.404092 93.7112317,97.4118649 92.3574839,92.297008 Z" id="Oval-75" stroke="none" fill="#E7EAF5" fill-rule="evenodd" sketch:type="MSShapeGroup" mask="url(#mask-5)">
                                <g transform="translate(83.198689, 93.671828) rotate(-56.000000) translate(-83.198689, -93.671828) "></g>
                            </path>
                            <path d="M157.079196,101.05058 C154.967725,93.0728238 145.954136,89.175088 139.033229,90.8510788 C132.112323,92.5270696 127.451169,95.2238208 128.18213,103.578746 C128.913091,111.933671 135.398518,116.729952 143.827321,115.992527 C152.256124,115.255103 159.190666,109.028336 157.079196,101.05058 Z" id="Oval-75" stroke="none" fill="#E7EAF5" fill-rule="evenodd" sketch:type="MSShapeGroup" mask="url(#mask-5)">
                                <g transform="translate(142.794019, 103.194917) rotate(-56.000000) translate(-142.794019, -103.194917) "></g>
                            </path>
                            <path d="M217.105187,6.18546668 C216.309211,3.17803379 212.911292,1.70867593 210.302268,2.3404864 C207.693243,2.97229687 205.936094,3.98891078 206.21165,7.13852769 C206.487206,10.2881446 208.932064,12.0962337 212.109532,11.8182413 C215.286999,11.540249 217.901164,9.19289957 217.105187,6.18546668 Z" id="Oval-75" stroke="none" fill="#E7EAF5" fill-rule="evenodd" sketch:type="MSShapeGroup" mask="url(#mask-5)"></path>
                            <path d="M293.668203,12.2673452 C293.765878,-0.458534947 271.74023,3.1211551 265.810629,4.55708798 C259.881028,5.99302087 258.119248,8.16446445 258.745511,15.3226847 C259.371774,22.4809049 260.574329,27.8800187 267.795845,27.2482178 C275.017362,26.616417 293.570528,24.9932252 293.668203,12.2673452 Z" id="Oval-75" stroke="#E7EAF5" stroke-width="8" fill="#B8BEDC" fill-rule="evenodd" filter="url(#filter-15)" sketch:type="MSShapeGroup" mask="url(#mask-5)"></path>
                        </g>
                    </g>
                    <g id="Sam" mask="url(#mask-3)">
                        <g transform="translate(301.494328, 187.876612) rotate(-100.000000) translate(-301.494328, -187.876612) translate(183.494328, 49.376612)">
                            <mask id="mask-18" sketch:name="Path 121" fill="white">
                                <use xlink:href="#path-17"></use>
                            </mask>
                            <g id="Path-121" filter="url(#filter-16)" stroke="none">
                                <use fill="#FFC533" fill-rule="evenodd" sketch:type="MSShapeGroup" transform="translate(95.117366, 227.056904) rotate(117.000000) translate(-95.117366, -227.056904) " xlink:href="#path-17"></use>
                                <use fill="none" xlink:href="#path-17"></use>
                            </g>
                            <path d="M126.04373,222.038548 C126.04373,222.038548 121.01284,230.467614 112.46357,230.467614 C103.914301,230.467614 102.708754,239.063148 102.037077,241.060185 C100.390418,245.956048 95.6211783,237.523201 95.6211783,237.523201 L105.226395,216.08913 L126.04373,222.038548 Z" id="Path-137" stroke="none" fill-opacity="0.4" fill="#2D2C45" fill-rule="evenodd" sketch:type="MSShapeGroup" mask="url(#mask-18)"></path>
                            <mask id="mask-20" sketch:name="Sam" fill="white">
                                <use xlink:href="#path-19"></use>
                            </mask>
                            <use id="Sam" stroke="none" fill="#FFC533" fill-rule="evenodd" sketch:type="MSShapeGroup" xlink:href="#path-19"></use>
                            <path d="M177.042604,77.0937386 C177.042604,77.0937386 169.377573,74.7393551 157.206347,72.109623 C145.035121,69.4798909 118.46292,81.1332433 109.560893,92.9386482 C100.658866,104.744053 58.7608564,115.585382 41.9369829,145.91972 C25.1131095,176.254058 28.937826,169.955334 7.48301679,196.26321 C-13.9717924,222.571087 -24.1832563,204.758724 -24.1832563,204.758724 C-24.1832563,204.758724 0.252600301,151.99529 26.3026015,114.394857 C52.3526028,76.7944238 152.60158,7.4001732 152.60158,7.4001732 L177.042604,77.0937386 Z" id="Shadow" stroke="none" fill-opacity="0.4" fill="#2D2C45" fill-rule="evenodd" sketch:type="MSShapeGroup" mask="url(#mask-20)"></path>
                            <path d="M211.641147,93.3678424 C197.442157,110.298579 151.554414,149.659854 132.566829,173.571674 C113.579244,197.483493 102.504988,222.901691 98.0327295,234.250636 C93.5604706,245.599582 89.5592994,265.077584 85.5105213,268.437358 C81.4617432,271.797132 76.447667,263.19807 76.447667,263.19807 L69.9393038,270.831334 L91.7052458,286.320881 C91.7052458,286.320881 183.785522,123.558429 211.641153,104.635368 C239.496784,85.7123072 225.840137,76.4371061 211.641147,93.3678424 Z" id="Highlight" stroke="none" fill-opacity="0.75" fill="#FFFFFF" fill-rule="evenodd" sketch:type="MSShapeGroup" mask="url(#mask-20)"></path>
                            <path d="M21.1260478,222.092081 C19.9701939,220.570342 7.7774647,233.139105 0.409624117,233.139104 C-6.95821647,233.139104 7.77746483,238.897602 7.77746483,238.897602 C7.77746483,238.897602 22.2819017,223.613821 21.1260478,222.092081 Z" id="Highlight" stroke="none" fill-opacity="0.75" fill="#FFFFFF" fill-rule="evenodd" sketch:type="MSShapeGroup" mask="url(#mask-20)"></path>
                            <path d="M43.9314462,159.375762 C58.0954419,135.012309 80.9579084,124.468379 100.089187,137.330494 C119.220466,150.19261 112.590296,180.208658 100.089184,199.665319 C84.9642605,223.205665 79.3455701,240.53769 48.9342243,226.000812 C18.2267985,211.322405 32.8472706,178.441625 43.9314462,159.375762 Z" id="Tum-tum!" stroke="none" fill="#FFFFFF" fill-rule="evenodd" sketch:type="MSShapeGroup" mask="url(#mask-20)"></path>
                            <g id="Face" stroke="none" stroke-width="1" fill="none" fill-rule="evenodd" sketch:type="MSLayerGroup" mask="url(#mask-20)">
                                <g transform="translate(116.000000, 72.000000)" sketch:type="MSShapeGroup">
                                    <path d="M2.13616506,14.7331796 C4.84124327,14.7331797 2.58050086,9.16970319 6.00921204,6.48562116 C9.43792321,3.80153913 14.4681959,5.21364838 14.4681959,3.5075937 C14.4681959,1.80153901 5.92425096,-1.13400814 2.13616503,2.38503503 C-1.65192089,5.90407819 -0.568913153,14.7331796 2.13616506,14.7331796 Z" id="Path-118" stroke="none" fill="#2D2C45" fill-rule="evenodd" transform="translate(6.968196, 7.348902) rotate(90.000000) translate(-6.968196, -7.348902) "></path>
                                    <path d="M32.9007434,47.5743234 C35.6058216,47.5743234 33.3450792,42.0108469 36.7737903,39.3267649 C40.2025015,36.6426829 45.2327742,38.0547921 45.2327742,36.3487374 C45.2327742,34.6426827 36.6888293,31.7071356 32.9007433,35.2261788 C29.1126574,38.7452219 30.1956652,47.5743233 32.9007434,47.5743234 Z" id="Path-119" stroke="none" fill="#2D2C45" fill-rule="evenodd" transform="translate(37.732775, 40.190046) scale(-1, 1) rotate(-7.000000) translate(-37.732775, -40.190046) "></path>
                                    <path d="M2.59321749,44.6314991 C2.59321749,44.6314991 6.93632471,44.5295751 8.84016287,42.4851444 C10.744001,40.4407137 10.7440006,35.865197 10.7440006,35.865197 C10.7440006,35.865197 15.9945952,35.9437755 17.8200575,33.2055819 C19.6455199,30.4673884 19.4637753,26.7520016 19.4637753,26.7520016" id="Path-118" stroke="#2D2C45" stroke-width="3" stroke-linecap="round" stroke-linejoin="round" fill="none" transform="translate(10.767614, 35.563348) rotate(97.000000) translate(-10.767614, -35.563348) "></path>
                                    <path d="M10.0830618,31.0698014 C8.78743848,32.291184 8.90483913,37.6996844 11.0234915,37.6996844 C13.1421438,37.6996844 17.4404839,33.0214615 16.7881398,31.0698014 C16.1357958,29.1181413 11.3786851,29.8484188 10.0830618,31.0698014 Z" id="Path-116" stroke="none" fill="#2D2C45" fill-rule="evenodd" transform="translate(13.051812, 33.543434) rotate(-83.000000) translate(-13.051812, -33.543434) "></path>
                                </g>
                            </g>
                            <g id="Ears" stroke="none" stroke-width="1" fill="none" fill-rule="evenodd" sketch:type="MSLayerGroup" mask="url(#mask-20)">
                                <g transform="translate(128.000000, 31.000000)" id="Path-116" fill="#FF7733" sketch:type="MSShapeGroup">
                                    <path d="M0.988699359,14.4587124 C7.19140725,8.6515395 21.1475003,2.84436669 24.2488542,5.74795313 C27.3502082,8.65153957 24.2488542,26.0730596 21.1475003,26.0730586 C18.0461463,26.0730576 -5.21400853,20.2658853 0.988699359,14.4587124 Z" transform="translate(12.618777, 15.184609) rotate(100.000000) translate(-12.618777, -15.184609) "></path>
                                    <path d="M51.7235742,57.9747868 C56.4619768,56.3953188 67.5182496,67.4515919 70.6771848,70.6105271 C73.83612,73.7694622 54.8825093,80.087334 51.7235741,80.0873329 C48.564639,80.0873319 46.9851717,59.5542547 51.7235742,57.9747868 Z" transform="translate(59.620912, 69.031060) rotate(100.000000) translate(-59.620912, -69.031060) "></path>
                                </g>
                            </g>
                            <path d="M56.1196102,126.399879 C56.1196102,126.399879 95.8093876,115.69421 98.449036,124.702822 C101.088684,133.711434 74.8455223,142.688174 74.8455223,142.688174" id="Path-118" stroke="none" fill="#FFC533" fill-rule="evenodd" sketch:type="MSShapeGroup" mask="url(#mask-20)">
                                <g transform="translate(77.619610, 132.010761) rotate(100.000000) translate(-77.619610, -132.010761) "></g>
                            </path>
                            <mask id="mask-22" sketch:name="Oval 66" fill="white">
                                <use xlink:href="#path-21"></use>
                            </mask>
                            <use id="Oval-66" stroke-opacity="0.08" stroke="#FFFFFF" stroke-width="2" fill-opacity="0.02" fill="#F2F4FA" fill-rule="evenodd" sketch:type="MSShapeGroup" xlink:href="#path-21"></use>
                            <path d="M114.533654,111.43355 C145.26217,93.2304254 211.375451,64.5233941 237.318811,127.30855 C263.26217,190.093707 278.377404,130.484332 278.377404,130.484332 C278.377404,130.484332 250.689904,22.1601132 198.519983,34.8612847 C146.350061,47.5624563 83.8051389,129.636675 114.533654,111.43355 Z" id="Path-146" stroke="none" fill-opacity="0.03" fill="#FFFFFF" fill-rule="evenodd" sketch:type="MSShapeGroup" mask="url(#mask-22)">
                                <g transform="translate(192.388380, 94.943296) rotate(116.000000) translate(-192.388380, -94.943296) "></g>
                            </path>
                            <path d="M122.586005,121.379814 C140.586005,99.3798138 145.107176,75.2389288 146.628414,74.5753545 C148.149652,73.9117802 154.512206,77.3924932 154.802486,78.9357061 C155.092767,80.4789189 150.586005,102.379814 131.586005,127.379814 C112.586005,152.379814 90.5860048,162.379814 87.5860048,162.379814 C84.5860048,162.379814 80.7353478,157.847067 80.7353478,155.612464 C80.7353478,153.377861 104.586005,143.379814 122.586005,121.379814 Z" id="Path-121" stroke="none" fill="#FF1F4B" fill-rule="evenodd" sketch:type="MSShapeGroup" transform="translate(117.775376, 118.436024) rotate(100.000000) translate(-117.775376, -118.436024) "></path>
                            <mask id="mask-24" sketch:name="Path 118" fill="white">
                                <use xlink:href="#path-23"></use>
                            </mask>
                            <use id="Path-118" stroke="none" fill="#FFC533" fill-rule="evenodd" sketch:type="MSShapeGroup" transform="translate(133.752927, 183.783052) rotate(80.000000) translate(-133.752927, -183.783052) " xlink:href="#path-23"></use>
                            <path d="M149.596695,195.751084 C149.596695,195.751084 145.504772,202.170365 145.504772,199.873173 C145.504772,194.731114 145.496285,189.193276 140.938638,182.777553 C136.380991,176.36183 134.8954,169.954269 139.767087,167.607347 C142.462369,166.308902 149.596695,195.751084 149.596695,195.751084 Z" id="Path-138" stroke="none" fill-opacity="0.4" fill="#2D2C45" fill-rule="evenodd" sketch:type="MSShapeGroup" mask="url(#mask-24)"></path>
                            <path d="M145.393476,200.539507 C142.995845,202.012236 137.297577,198.689299 132.844212,193.593942 C128.390848,188.498586 125.484627,181.463002 124.071851,181.463002 C122.659075,181.463002 124.071851,183.576147 124.071851,183.576147 L138.634446,209.173993 C138.634446,209.173993 147.791107,199.066779 145.393476,200.539507 Z" id="Path-139" stroke="none" fill-opacity="0.75" fill="#FFFFFF" fill-rule="evenodd" sketch:type="MSShapeGroup" mask="url(#mask-24)"></path>
                        </g>
                    </g>
                    <g id="Stars" mask="url(#mask-3)" sketch:type="MSShapeGroup">
                        <g transform="translate(129.000000, 47.000000)">
                            <path d="M26.0134954,353.796875 C23.2175866,353.796875 19.6549037,357.622509 21.5159782,360.742716 C23.3770527,363.862922 28.2588004,365.762338 30.3725539,360.512447 C32.4863074,355.262556 28.8094041,353.796875 26.0134954,353.796875 Z" id="Path-111" fill="#FF1F4B"></path>
                            <path d="M5.0107963,153.796875 C2.77406931,153.796875 -0.0760770025,156.857382 1.4127826,159.353548 C2.90164219,161.849713 6.80704033,163.369245 8.49804313,159.169332 C10.1890459,154.96942 7.24752329,153.796875 5.0107963,153.796875 Z" id="Path-132" fill="#FF7733" transform="translate(5.000000, 157.796875) rotate(-90.000000) translate(-5.000000, -157.796875) "></path>
                            <path d="M398.013495,153.796875 C395.217587,153.796875 391.654904,157.622509 393.515978,160.742716 C395.377053,163.862922 400.2588,165.762338 402.372554,160.512447 C404.486307,155.262556 400.809404,153.796875 398.013495,153.796875 Z" id="Path-143" fill="#69D84B" transform="translate(398.000000, 158.796875) rotate(-90.000000) translate(-398.000000, -158.796875) "></path>
                            <path d="M390.010796,61.4847859 C387.774069,61.4847859 384.923923,64.9278566 386.412783,67.7360426 C387.901642,70.5442286 391.80704,72.2537023 393.498043,67.5288005 C395.189046,62.8038987 392.247523,61.4847859 390.010796,61.4847859 Z" id="Path-111" fill="#FF1F4B" transform="translate(390.000000, 65.984786) rotate(168.000000) translate(-390.000000, -65.984786) "></path>
                            <path d="M257.67068,290.513319 C255.915228,290.513319 252.796875,289.822943 252.796875,294.941388 C252.796875,300.059834 256.443408,299.460588 257.990455,299.460588 C259.537502,299.460588 261.796875,297.09398 261.796875,294.525782 C261.796875,291.957585 259.426133,290.513319 257.67068,290.513319 Z" id="Path-112" fill="#7053FF"></path>
                            <path d="M247.129147,49.5133186 C245.568745,49.5133186 242.796875,48.8229428 242.796875,53.9413885 C242.796875,59.0598341 246.038237,58.460588 247.413391,58.460588 C248.788544,58.4605879 250.796875,56.09398 250.796875,53.5257823 C250.796875,50.9575845 248.689548,49.5133186 247.129147,49.5133186 Z" id="Path-133" fill="#44C5FF" transform="translate(246.796875, 53.982159) rotate(90.000000) translate(-246.796875, -53.982159) "></path>
                            <path d="M534.393201,10.0383212 C532.316104,10.0383212 530.64171,12.5509953 530.64171,14.5842335 C530.64171,16.6174717 532.54077,18.0383212 534.88916,18.0383212 C537.237551,18.0383212 538.64171,17.6636359 538.64171,13.8509785 C538.64171,10.0383212 536.470297,10.0383212 534.393201,10.0383212 Z" id="Path-113" fill="#44C5FF"></path>
                            <path d="M54.3932006,0.0383211543 C52.3161043,0.0383211543 50.6417104,2.40772803 50.6417104,5.15247257 C50.6417104,7.89721712 52.5407698,9.03832115 54.8891604,9.03832115 C57.2375509,9.03832115 58.6417104,8.61680025 58.6417104,4.3275607 C58.6417104,0.0383211543 56.4702969,0.0383211543 54.3932006,0.0383211543 Z" id="Path-125" fill="#44C5FF" transform="translate(54.641710, 4.538321) rotate(-90.000000) translate(-54.641710, -4.538321) "></path>
                            <path d="M47.1029508,306.943837 C45.5451286,306.943837 44.2893331,308.828343 44.2893331,310.353272 C44.2893331,311.8782 45.7136277,312.943837 47.4749206,312.943837 C49.2362135,312.943837 50.2893331,312.662823 50.2893331,309.80333 C50.2893331,306.943837 48.660773,306.943837 47.1029508,306.943837 Z" id="Path-113" fill="#FFC533"></path>
                            <path d="M74.5924449,246.554688 C70.5230113,246.554688 69.59375,247.733329 69.59375,251.251618 C69.59375,254.769906 71.6715365,255.554688 74.4619306,255.554688 C77.2523248,255.554688 79.59375,254.966836 79.59375,251.251618 C79.59375,247.536399 78.6618784,246.554688 74.5924449,246.554688 Z" id="Path-115" fill="#69D84B"></path>
                            <path d="M195.530074,343.9829 C193.495358,343.9829 193.030727,344.637701 193.030727,346.592306 C193.030727,348.54691 194.06962,348.9829 195.464817,348.9829 C196.860014,348.9829 198.030727,348.656316 198.030727,346.592306 C198.030727,344.528295 197.564791,343.9829 195.530074,343.9829 Z" id="Path-115" fill="#FFC533"></path>
                            <path d="M98.5300745,237.9829 C96.4953577,237.9829 96.030727,238.637701 96.030727,240.592306 C96.030727,242.54691 97.0696203,242.9829 98.4648174,242.9829 C99.8600144,242.9829 101.030727,242.656316 101.030727,240.592306 C101.030727,238.528295 100.564791,237.9829 98.5300745,237.9829 Z" id="Path-120" fill="#44C5FF"></path>
                            <path d="M238.030205,281.9829 C236.402432,281.9829 236.030727,282.506741 236.030727,284.070424 C236.030727,285.634108 236.861842,285.9829 237.977999,285.9829 C239.094157,285.9829 240.030727,285.721633 240.030727,284.070424 C240.030727,282.419216 239.657978,281.9829 238.030205,281.9829 Z" id="Path-126" fill="#7053FF"></path>
                            <path d="M460.530074,84.9828999 C458.495358,84.9828999 458.030727,85.5067406 458.030727,87.0704244 C458.030727,88.6341083 459.06962,88.9828999 460.464817,88.9828999 C461.860014,88.9828999 463.030727,88.7216328 463.030727,87.0704244 C463.030727,85.4192161 462.564791,84.9828999 460.530074,84.9828999 Z" id="Path-130" fill="#69D84B"></path>
                            <path d="M168.030205,231.9829 C166.402432,231.9829 166.030727,232.506741 166.030727,234.070424 C166.030727,235.634108 166.861842,235.9829 167.977999,235.9829 C169.094157,235.9829 170.030727,235.721633 170.030727,234.070424 C170.030727,232.419216 169.657978,231.9829 168.030205,231.9829 Z" id="Path-127" fill="#FF1F4B"></path>
                            <path d="M368.530074,141.9829 C366.495358,141.9829 366.030727,142.637701 366.030727,144.592306 C366.030727,146.54691 367.06962,146.9829 368.464817,146.9829 C369.860014,146.9829 371.030727,146.656316 371.030727,144.592306 C371.030727,142.528295 370.564791,141.9829 368.530074,141.9829 Z" id="Path-136" fill="#44C5FF"></path>
                            <path d="M268.030205,21.9828999 C266.402432,21.9828999 266.030727,22.5067406 266.030727,24.0704244 C266.030727,25.6341083 266.861842,25.9828999 267.977999,25.9828999 C269.094157,25.9828999 270.030727,25.7216328 270.030727,24.0704244 C270.030727,22.4192161 269.657978,21.9828999 268.030205,21.9828999 Z" id="Path-135" fill="#FFC533"></path>
                            <path d="M188.030205,41.9828999 C186.402432,41.9828999 186.030727,42.5067406 186.030727,44.0704244 C186.030727,45.6341083 186.861842,45.9828999 187.977999,45.9828999 C189.094157,45.9828999 190.030727,45.7216328 190.030727,44.0704244 C190.030727,42.4192161 189.657978,41.9828999 188.030205,41.9828999 Z" id="Path-134" fill="#69D84B"></path>
                            <path d="M28.030205,221.9829 C26.4024316,221.9829 26.030727,222.506741 26.030727,224.070424 C26.030727,225.634108 26.8618416,225.9829 27.9779993,225.9829 C29.094157,225.9829 30.030727,225.721633 30.030727,224.070424 C30.030727,222.419216 29.6579784,221.9829 28.030205,221.9829 Z" id="Path-128" fill="#7053FF"></path>
                            <path d="M348.030205,211.9829 C346.402432,211.9829 346.030727,212.506741 346.030727,214.070424 C346.030727,215.634108 346.861842,215.9829 347.977999,215.9829 C349.094157,215.9829 350.030727,215.721633 350.030727,214.070424 C350.030727,212.419216 349.657978,211.9829 348.030205,211.9829 Z" id="Path-145" fill="#69D84B"></path>
                            <path d="M338.030205,21.9828999 C336.402432,21.9828999 336.030727,22.5067406 336.030727,24.0704244 C336.030727,25.6341083 336.861842,25.9828999 337.977999,25.9828999 C339.094157,25.9828999 340.030727,25.7216328 340.030727,24.0704244 C340.030727,22.4192161 339.657978,21.9828999 338.030205,21.9828999 Z" id="Path-129" fill="#FF7733"></path>
                            <path d="M610.530074,34.9828999 C608.495358,34.9828999 608.030727,35.5067406 608.030727,37.0704244 C608.030727,38.6341083 609.06962,38.9828999 610.464817,38.9828999 C611.860014,38.9828999 613.030727,38.7216328 613.030727,37.0704244 C613.030727,35.4192161 612.564791,34.9828999 610.530074,34.9828999 Z" id="Path-142" fill="#7053FF"></path>
                            <path d="M518.530074,104.9829 C516.495358,104.9829 516.030727,105.637701 516.030727,107.592306 C516.030727,109.54691 517.06962,109.9829 518.464817,109.9829 C519.860014,109.9829 521.030727,109.656316 521.030727,107.592306 C521.030727,105.528295 520.564791,104.9829 518.530074,104.9829 Z" id="Path-140" fill="#44C5FF"></path>
                            <path d="M568.530074,61.9828999 C566.495358,61.9828999 566.030727,62.6377007 566.030727,64.5923055 C566.030727,66.5469104 567.06962,66.9828999 568.464817,66.9828999 C569.860014,66.9828999 571.030727,66.656316 571.030727,64.5923056 C571.030727,62.5282951 570.564791,61.9828999 568.530074,61.9828999 Z" id="Path-141" fill="#FF7733"></path>
                            <path d="M41,29 L40.0169843,31.6330778 C39.8235092,32.1513146 39.2360026,32.7032645 38.711036,32.8639686 L35,34 L38.711036,35.1360314 C39.2388162,35.2975968 39.8248534,35.8522859 40.0169843,36.3669222 L41,39 L41.9830157,36.3669222 C42.1764908,35.8486854 42.7639974,35.2967355 43.288964,35.1360314 L47,34 L43.288964,32.8639686 C42.7611838,32.7024032 42.1751466,32.1477141 41.9830157,31.6330778 L41,29 Z" id="Path-505" fill="#7053FF"></path>
                            <path d="M71,320 L69.9625765,323.334575 C69.79915,323.859875 69.2525311,324.437846 68.722297,324.632626 L65,326 L68.722297,327.367374 C69.243858,327.558968 69.7993863,328.140885 69.9625765,328.665425 L71,332 L72.0374235,328.665425 C72.20085,328.140125 72.7474689,327.562154 73.277703,327.367374 L77,326 L73.277703,324.632626 C72.756142,324.441032 72.2006137,323.859115 72.0374235,323.334575 L71,320 Z" id="Path-506" fill="#69D84B"></path>
                            <path d="M159,311 L158.216249,313.267279 C158.035453,313.790296 157.47271,314.35188 156.947497,314.525521 L154,315.5 L156.947497,316.474479 C157.467414,316.646369 158.034147,317.205926 158.216249,317.732721 L159,320 L159.783751,317.732721 C159.964547,317.209704 160.52729,316.64812 161.052503,316.474479 L164,315.5 L161.052503,314.525521 C160.532586,314.353631 159.965853,313.794074 159.783751,313.267279 L159,311 Z" id="Path-507" fill="#FF7733" transform="translate(159.000000, 315.500000) rotate(-90.000000) translate(-159.000000, -315.500000) "></path>
                            <path d="M375,110 L373.744371,114.03595 C373.578726,114.56838 373.017228,115.156937 372.508511,115.343812 L368,117 L372.508511,118.656188 C373.025413,118.84607 373.57707,119.426297 373.744371,119.96405 L375,124 L376.255629,119.96405 C376.421274,119.43162 376.982772,118.843063 377.491489,118.656188 L382,117 L377.491489,115.343812 C376.974587,115.15393 376.42293,114.573703 376.255629,114.03595 L375,110 Z" id="Path-508" fill="#FF7733"></path>
                            <path d="M317.5,352 L316.531023,355.680854 C316.39116,356.212154 315.867606,356.820928 315.360087,357.041261 L312,358.5 L315.360087,359.958739 C315.866914,360.178771 316.390571,360.78561 316.531023,361.319146 L317.5,365 L318.468977,361.319146 C318.60884,360.787846 319.132394,360.179072 319.639913,359.958739 L323,358.5 L319.639913,357.041261 C319.133086,356.821229 318.609429,356.21439 318.468977,355.680854 L317.5,352 Z" id="Path-509" fill="#FF1F4B"></path>
                            <path d="M559.5,32 L558.531023,35.6808541 C558.39116,36.2121537 557.867606,36.8209278 557.360087,37.0412609 L554,38.5 L557.360087,39.9587391 C557.866914,40.1787714 558.390571,40.7856097 558.531023,41.3191459 L559.5,45 L560.468977,41.3191459 C560.60884,40.7878463 561.132394,40.1790722 561.639913,39.9587391 L565,38.5 L561.639913,37.0412609 C561.133086,36.8212286 560.609429,36.2143903 560.468977,35.6808541 L559.5,32 Z" id="Path-510" fill="#FFC533"></path>
                        </g>
                    </g>
                    <g id="Constellations" mask="url(#mask-3)" stroke-linecap="square" stroke="#2D2C45" sketch:type="MSShapeGroup">
                        <g transform="translate(213.000000, 18.000000)">
                            <path d="M0.5,287.5 L64.5,334.5" id="Line"></path>
                            <path d="M387.5,110.5 L465.5,67.5" id="Line"></path>
                            <path d="M171.5,72.5 L180.5,59.5" id="Line"></path>
                            <path d="M294.5,134.5 L300.5,104.5" id="Line-6"></path>
                            <path d="M294.5,90.5 L192.5,51.5" id="Line"></path>
                            <path d="M172.5,85.5 L284.5,137.5" id="Line-4"></path>
                            <path d="M180.5,41.5 L159.5,0.5" id="Line-4"></path>
                            <path d="M320.5,177.5 L369.5,123.5" id="Line-3"></path>
                            <path d="M162.5,323.5 L85.5,340.5" id="Line-2"></path>
                            <path d="M181.5,333.5 L227.5,378.5" id="Line-5"></path>
                        </g>
                    </g>
                </g>
            </g>
        </g>
    </g>
</svg>