<svg width="134px" height="33px" viewBox="0 0 134 33" version="1.1" xmlns="http://www.w3.org/2000/svg" xmlns:xlink="http://www.w3.org/1999/xlink">
    <g id="logo" fill="#FFFFFF">
        <path d="M121.478595,17.7042764 C122.042498,18.149766 128.063709,20.6694548 128.254105,15.507284 C128.417103,11.0889998 123.326714,12.5796888 122.041805,13.0961326 C121.321146,13.3857818 120.476678,16.913411 121.478595,17.7042764 M121.521164,23.8840766 C120.480675,24.5532362 123.283335,32.021218 119.487498,32.7470799 C115.249116,33.5569049 114.491769,26.1314498 114.864802,19.5118215 C115.090441,15.5099487 116.189523,10.1846591 117.453832,9.02117178 C119.258947,7.36081255 133.501888,3.96630844 133.495338,15.6778747 C133.488059,27.8914015 122.437187,23.2952451 121.521164,23.8840766" class="logo-letter" id="logo-p"></path>
        <path d="M91.3530815,18.8849977 C87.4497288,6.74043696 102.784381,6.60723551 104.729142,7.77919052 C106.115659,8.61433095 107.235061,9.74418414 108.140118,13.6592906 C109.249695,18.4621647 110.730465,24.3208509 107.320945,24.7523946 C104.918378,25.0569069 104.947491,23.0044431 104.400891,22.616453 C103.583538,22.0371901 94.9933236,30.2103876 91.3530815,18.8849977 Z M102.102752,13.0717142 C101.657121,12.7866976 95.4156929,11.0159063 97.1527768,16.7947014 C98.4640284,21.1581376 102.708719,17.4120137 103.083594,16.6166498 C103.456522,15.824639 102.842116,13.5435004 102.102752,13.0717142 Z" class="logo-letter" id="logo-a2"></path>
        <path d="M81.8040011,22.9909419 C76.9486813,22.9801135 82.084238,13.5269362 75.3035521,13.1016422 C67.8595016,12.6345282 76.6134446,24.0651921 69.2932371,24.0487628 C63.310609,24.0353207 61.481399,6.39289957 76.3474253,6.42687829 C87.2463593,6.4511488 87.2343866,23.0032639 81.8040011,22.9909419" class="logo-letter" id="logo-n"></path>
        <path d="M49.6071474,0.259146341 C53.0182072,0.259146341 52.1380872,6.53410877 52.1380872,7.20396403 C52.1380872,8.90543193 58.6718349,6.30809925 58.6378012,10.548976 C58.6077929,14.329305 52.2306736,12.7138345 51.8665491,13.3097747 C51.7465161,13.5062892 50.3771152,18.5275385 54.8457829,18.6565345 C59.7261492,18.7979681 58.8745736,24.0487805 55.1842906,24.0487805 C49.5650626,24.0487805 45.8173248,22.0932296 45.5022382,16.8178973 C44.8259547,5.48650489 45.4685704,0.259146341 49.6071474,0.259146341" class="logo-letter" id="logo-t"></path>
        <path d="M22.3323264,18.0070766 C20.1203017,6.01947076 34.41521,6.66500418 36.164063,8.0135156 C37.4096944,8.97499418 39.043218,10.981246 39.427402,14.7995151 C39.8983612,19.4841203 40.8617879,24.9392008 37.4812653,24.9298661 C35.098657,24.9219675 35.1149737,22.9903936 34.6310353,22.5552509 C33.9079091,21.9068453 24.3237049,28.7969631 22.3323264,18.0070766 Z M32.9325347,12.8455057 C32.518237,12.5180774 26.4153271,11.2216879 27.5995251,16.9082148 C28.3752605,20.6328366 33.1168577,17.7122961 33.5967153,17.0054773 C34.0755431,16.3006571 33.6217722,13.38911 32.9325347,12.8455057 Z" class="logo-letter" id="logo-a1"></path>
        <path d="M15.7761151,9.85682048 C15.5400305,14.3500743 7.50552651,8.74370242 7.18481465,15.7304572 C6.78637647,24.3958099 17.1003682,15.2651105 16.7444252,22.0399467 C16.4531332,27.5789562 0.0129274595,28.4466566 0.735709568,14.6850656 C1.27289285,4.45617704 16.0398035,4.83267821 15.7761151,9.85682048" class="logo-letter" id="logo-c"></path>
    </g>
</svg>