<?xml version="1.0" encoding="UTF-8" standalone="no"?>
<svg width="163px" height="42px" viewBox="0 0 163 42" version="1.1" xmlns="http://www.w3.org/2000/svg" xmlns:xlink="http://www.w3.org/1999/xlink" xmlns:sketch="http://www.bohemiancoding.com/sketch/ns">
    <!-- Generator: Sketch 3.0.4 (8053) - http://www.bohemiancoding.com/sketch -->
    <title>catnap</title>
    <desc>Created with Sketch.</desc>
    <defs>
        <filter x="-50%" y="-50%" width="200%" height="200%" filterUnits="objectBoundingBox" id="filter-1">
            <feOffset dx="1" dy="1" in="SourceAlpha" result="shadowOffsetOuter1"></feOffset>
            <feGaussianBlur stdDeviation="0.5" in="shadowOffsetOuter1" result="shadowBlurOuter1"></feGaussianBlur>
            <feColorMatrix values="0 0 0 0 0   0 0 0 0 0   0 0 0 0 0  0 0 0 0.035 0" in="shadowBlurOuter1" type="matrix" result="shadowMatrixOuter1"></feColorMatrix>
            <feMerge>
                <feMergeNode in="shadowMatrixOuter1"></feMergeNode>
                <feMergeNode in="SourceGraphic"></feMergeNode>
            </feMerge>
        </filter>
    </defs>
    <g id="Altpages" stroke="none" stroke-width="1" fill="none" fill-rule="evenodd" sketch:type="MSPage">
        <g id="Home" sketch:type="MSArtboardGroup" transform="translate(-105.000000, -45.000000)" filter="url(#filter-1)" fill="#FFFFFF">
            <g id="Header" sketch:type="MSLayerGroup" transform="translate(106.000000, 45.000000)">
                <path d="M143.768923,20.2248985 C144.51284,20.8282492 152.456192,24.2408008 152.707367,17.2493922 C152.922398,11.2654696 146.207013,13.2843908 144.511925,13.9838388 C143.561212,14.3761265 142.447166,19.1537865 143.768923,20.2248985 M143.760536,27.8263864 C142.521661,28.6333143 145.858694,37.6388217 141.339118,38.5141258 C136.292619,39.4906794 135.390871,30.5364542 135.835029,22.5539612 C136.10369,17.7281734 137.41233,11.3065006 138.9177,9.90347185 C141.06699,7.90127396 158.025582,3.80790135 158.017783,17.9306724 C158.009116,32.6587489 144.851214,27.116325 143.760536,27.8263864 M120.479415,15.8588006 C119.883483,15.4727871 111.536964,13.0745082 113.859927,20.9010446 C115.613433,26.8106835 121.289761,21.7371043 121.791073,20.6598997 C122.289781,19.5872364 121.46815,16.4977664 120.479415,15.8588006 M107.840412,22.7980854 C103.192821,8.15317398 121.451277,7.9925487 123.766839,9.40578856 C125.417718,10.4128697 126.750553,11.7753397 127.828174,16.4964975 C129.14931,22.2881986 130.912413,29.3530849 126.852812,29.8734758 C123.992156,30.2406818 124.02682,27.765652 123.376001,27.2977816 C122.402807,26.5992586 112.174727,36.4551733 107.840412,22.7980854 M96.4706429,27.7493711 C90.6895765,27.7363134 96.8043116,16.3368937 88.7307764,15.8240391 C79.8673953,15.2607546 90.2904215,29.0447904 81.5744961,29.0249787 C74.4511816,29.008769 72.2732026,7.73408478 89.9736812,7.77505911 C102.950676,7.80432649 102.936421,27.76423 96.4706429,27.7493711 M58.1349297,0.3375 C62.1963642,0.3375 61.1484348,7.90436646 61.1484348,8.71213309 C61.1484348,10.7639032 68.927949,7.63182557 68.8874261,12.745824 C68.8516963,17.3044561 61.2586744,15.3563886 60.8251235,16.0750224 C60.6822043,16.3119959 59.0517046,22.3670317 64.3723973,22.5225857 C70.1832856,22.693138 69.1693431,29.025 64.775447,29.025 C58.0848208,29.025 53.6225152,26.6668356 53.2473521,20.3054056 C52.4421241,6.64107943 53.207265,0.3375 58.1349297,0.3375 M39.0852149,14.636706 C38.5311841,14.193252 30.3699025,12.4374811 31.9535032,20.1390537 C32.9908765,25.1835116 39.3317058,21.2280647 39.9734084,20.2707816 C40.6137339,19.3162053 40.0069164,15.3729388 39.0852149,14.636706 M25.6597157,21.739416 C23.0259321,7.28377356 40.0463997,8.06221092 42.1287003,9.68835704 C43.6118318,10.8477871 45.5568136,13.2670908 46.0142486,17.8714741 C46.5750038,23.5205568 47.7221237,30.0987422 43.6970489,30.0874856 C40.8601571,30.0779608 40.8795849,27.7487099 40.3033757,27.2239791 C39.4423735,26.4420781 28.0307832,34.7507496 25.6597157,21.739416 M17.853455,11.9111659 C17.572357,17.3295013 8.00594269,10.5688765 7.62408184,18.9940807 C7.14967488,29.4434767 19.4301987,18.4329273 19.0063894,26.6025828 C18.6595576,33.2819766 -0.915243546,34.3283213 -0.0546511464,17.7334615 C0.584954964,5.39862526 18.1674199,5.85264137 17.853455,11.9111659" id="catnap" sketch:type="MSShapeGroup"></path>
            </g>
        </g>
    </g>
</svg>